<svg xmlns="http://www.w3.org/2000/svg" width="60" height="70" viewBox="0 0 60 70" fill="none">
    <path d="M34.6872 41.8774C35.27 44.0338 35.3283 45.8406 35.3866 45.8406H35.5032C35.5032 45.8406 35.678 43.9755 36.1443 41.8774L42.3222 16H49.3161L39.6412 53.4173H31.7731L26.0031 31.27C25.362 28.8221 25.0706 26.3743 25.0706 26.3743H24.954C24.954 26.3743 24.6626 28.8804 24.0215 31.27L18.2516 53.4173H10.3835L1 16H7.99388L13.9387 41.8774C14.4049 43.9755 14.5798 45.8406 14.5798 45.8406H14.6964C14.7546 45.8406 14.8129 44.0338 15.3957 41.8774L22.1565 16H28.043L34.6872 41.8774Z" fill="black" />
    <path d="M53.8641 53.9999C56.407 53.9999 58.4684 51.9385 58.4684 49.3956C58.4684 46.8527 56.407 44.7913 53.8641 44.7913C51.3212 44.7913 49.2598 46.8527 49.2598 49.3956C49.2598 51.9385 51.3212 53.9999 53.8641 53.9999Z" fill="black" /></svg>