<svg xmlns="http://www.w3.org/2000/svg" width="60" height="70" viewBox="0 0 60 70" fill="none">
    <path d="M33.5725 68.5412C33.1134 68.0331 33.0526 67.653 33.3249 67.0009C33.8088 65.8451 35.5868 66.1937 35.7399 67.4743C35.804 68.0162 35.6138 68.3962 35.1097 68.7369C34.5099 69.1405 34.0631 69.0832 33.5725 68.5412V68.5412ZM32.1343 65.5169C30.7941 64.9153 30.4025 63.5549 31.1553 62.1113L31.5469 61.3625H30.892C28.4838 61.3625 26.7733 59.5366 26.7733 56.9687C26.7733 55.7151 27.0794 55.0102 28.0528 54.0196C29.0071 53.0482 29.0251 53.0156 29.6057 51.1999C30.5184 48.3407 30.9606 45.3242 30.8447 42.7338C30.7356 40.294 30.0615 38.3141 29.0104 37.3461C28.1529 36.5557 27.2628 36.4512 25.7841 36.965C22.7953 38.005 19.21 41.8726 16.7962 46.6633C16.4203 47.4076 16.3854 47.5638 16.3517 48.6353C16.3247 49.501 16.2504 49.9665 16.0602 50.4578C15.7305 51.3123 14.8179 52.259 13.9221 52.6783C13.3459 52.9482 13.1186 52.9875 12.1767 52.9864C11.2112 52.9853 11.0255 52.9493 10.4786 52.6637C10.0651 52.4325 9.67862 52.1561 9.32627 51.8396C9.03031 51.563 8.75911 51.3359 8.7231 51.3359C8.68821 51.3359 8.62294 51.5023 8.57906 51.7069C8.45527 52.2781 7.99726 53.1112 7.66079 53.3754C7.1769 53.7566 6.51184 53.8892 5.85352 53.7386C4.7327 53.48 4.04288 52.6098 4.04288 51.4495C4.04288 49.5539 5.91541 48.5341 7.5899 49.5179C8.04115 49.7832 8.04003 49.7866 8.09854 48.47C8.13568 47.6414 8.20207 47.3637 8.51154 46.7352C9.03031 45.6818 9.54908 45.2849 11.3935 44.526C11.6129 44.436 11.8639 44.0796 12.3129 43.2263C14.4319 39.1922 17.567 35.446 20.5581 33.3694C22.1088 32.2934 25.0144 31.0601 26.0159 31.0533C26.5921 31.0488 26.6045 30.8734 26.0688 30.2629C25.0538 29.1027 23.9814 26.9777 23.4727 25.1181C22.9832 23.3304 22.7818 21.6833 22.7818 19.4774V17.3783L22.2562 16.7341C21.5079 15.8155 21.2772 15.2264 21.2142 14.0774C21.1726 13.3038 21.2074 12.98 21.3897 12.4628C21.6857 11.6264 22.2382 10.8315 22.7896 10.4503C23.0316 10.2828 23.2319 10.1153 23.2341 10.0759C23.2364 10.0377 23.0068 9.94101 22.7244 9.86231C20.9351 9.36087 20.3691 7.19544 21.6947 5.92047C22.8864 4.77368 24.5643 5.11322 25.3475 6.6614C25.6513 7.26065 25.5411 8.21744 25.0853 8.95049C24.885 9.27205 24.7207 9.54413 24.7207 9.5565C24.7207 9.56774 25.0673 9.58236 25.4904 9.59023C27.561 9.62283 29.1522 11.0923 29.5045 13.2971C29.7183 14.635 29.3503 15.729 28.2745 16.9533C27.5723 17.7516 27.5093 18.0664 27.6117 20.2262C28.0123 28.6237 33.3981 31.5705 39.737 26.8585C40.8443 26.0344 42.359 24.5627 42.5109 24.1624C42.574 23.9972 42.6257 23.589 42.6257 23.254C42.6257 21.6575 43.5215 20.2476 44.9979 19.5213C45.6844 19.184 45.8532 19.148 46.786 19.148C48.0363 19.148 48.7272 19.4257 49.704 20.3173L50.3387 20.8986L50.4726 20.2498C50.8518 18.4116 52.8009 17.7212 54.1569 18.9456C55.0009 19.7068 55.1776 20.7389 54.6464 21.8047C54.0725 22.9538 52.9078 23.3046 51.6193 22.7143L50.9779 22.4197L50.9306 23.462C50.8935 24.3277 50.826 24.6279 50.5368 25.244C49.8762 26.646 48.6507 27.5252 47.2441 27.6073C46.8682 27.6298 46.4394 27.6725 46.2932 27.704C46.1469 27.7344 45.3985 28.3606 44.6311 29.0937C42.9397 30.7115 41.5004 31.756 39.8315 32.579C37.977 33.4931 36.7144 33.8697 35.0039 34.0181C34.4187 34.0699 33.9123 34.1384 33.8797 34.171C33.846 34.2048 34.0519 34.6062 34.3355 35.0649C35.7241 37.3079 36.3532 39.995 36.3532 43.6805C36.3532 46.7622 35.8805 49.7124 34.861 53.0044L34.394 54.5143L34.717 55.2901C34.9983 55.9636 35.0399 56.2132 35.041 57.2037C35.041 58.2403 35.0118 58.4 34.7124 58.97C34.5324 59.3152 34.0519 59.9167 33.6468 60.3079C32.9356 60.996 32.9209 61.0207 33.2349 61.023C33.7345 61.0275 34.4671 61.4109 34.7845 61.8347C35.9548 63.3975 35.0545 65.5517 33.1888 65.6585C32.7645 65.6832 32.392 65.6327 32.1343 65.5169V65.5169ZM1.60767 54.4177C1.13954 54.1343 1 53.8645 1 53.2461C1 52.6806 1.35673 52.2365 1.98803 52.0172C2.46967 51.8486 3.08635 52.1117 3.39244 52.6131C4.12953 53.8218 2.8129 55.1541 1.60655 54.4188L1.60767 54.4177ZM33.1618 26.9473C32.0027 26.5314 31.1249 25.7949 30.4542 24.674C29.7306 23.4631 29.6474 21.4371 30.2674 20.116C30.7684 19.0414 31.6194 18.1682 32.6812 17.6392C33.5185 17.2265 33.5905 17.2119 34.7518 17.2119C35.8704 17.2119 36.0099 17.2367 36.7313 17.5785C40.1939 19.2166 40.6857 23.9769 37.6282 26.266C36.4533 27.1464 34.5313 27.4387 33.1606 26.9473H33.1618ZM56.1071 20.0441C54.8715 19.4212 55.3644 17.4964 56.7587 17.4964C57.2358 17.4964 57.8795 18.0777 57.9774 18.5993C58.1743 19.6472 57.0456 20.5185 56.106 20.0441H56.1071ZM21.0443 4.39703C20.3916 3.88322 20.3578 2.95791 20.97 2.34629C21.2603 2.05622 21.4055 2 21.8669 2C22.3429 2 22.4588 2.04835 22.7142 2.35079C23.2702 3.01076 23.2454 3.83263 22.6546 4.32957C22.2157 4.69722 21.4674 4.7287 21.0443 4.39703Z" fill="#252525" /></svg>