<svg xmlns="http://www.w3.org/2000/svg" width="60" height="70" viewBox="0 0 60 70" fill="none">
    <path fill-rule="evenodd" clip-rule="evenodd" d="M15.9841 36.2214V40.9384H13.6498V36.2989H11.3908V33.9398H13.7287V36.2214H15.9841V36.2214ZM44.3314 24.3898V26.7453H46.6574V24.3898H44.3314ZM20.6469 5V7.34615H25.3309V5H20.6469ZM20.6281 45.6893V50.3981H18.2938V45.7058H16.0018V40.9877H18.342V45.6893H20.6281V45.6893ZM20.6551 55.2617V50.4192H22.9895V55.1971H41.87V50.6221H44.2008V57.7709H20.6551V55.2617ZM44.2702 43.423H46.601V50.4872H44.2702V43.423ZM41.9417 31.3098H39.6109V21.9709H41.9206V21.9639H44.2513V24.3194H41.9417V31.3098ZM34.8446 28.8463H32.515V19.5074H34.8246V19.5016H39.6356V21.8606H34.8458V28.8498L34.8446 28.8463ZM27.7487 29.0176H25.4179V7.37196H27.7487V17.0827H32.455V19.4382H27.7487V29.0164V29.0176ZM16.1006 26.7629V29.1208H11.3343V33.887H9V26.7547H11.3343V26.7676H16.0959L16.1006 26.7629ZM46.6716 26.8192H49V43.2892H46.6716V26.8192ZM20.6163 38.4925H18.2843V31.5456H16.03V29.1888H18.2843V7.34615H20.6163V38.4925V38.4925ZM17.2431 54.2692H47.834V58.9615H17.2431V54.2692ZM17.2431 61.3077H47.834V66H17.2431V61.3077Z" fill="#252525" /></svg>