<svg xmlns="http://www.w3.org/2000/svg" width="60" height="70" viewBox="0 0 60 70" fill="none">
    <path fill-rule="evenodd" clip-rule="evenodd" d="M12.0387 61.9783C9.6268 62.0506 9.6268 62.0506 8.89591 60.155C6.99561 55.2445 5.13185 50.3341 3.19501 45.4236C3.05002 45.121 2.98409 44.7873 3.00324 44.453C3.02239 44.1187 3.12601 43.7945 3.30464 43.51C10.0836 31.2519 16.8443 18.9879 23.5867 6.71776C24.007 5.95953 24.2628 5.76094 25.1033 6.32059C35.1712 12.8197 45.2574 19.2948 55.3619 25.7457C56.0563 26.1971 56.2024 26.4679 55.7091 27.208C48.2906 38.1302 40.8965 49.0704 33.5267 60.0286C33.4333 60.2584 33.2753 60.457 33.0713 60.601C32.8673 60.7449 32.6259 60.8282 32.3756 60.841C25.5053 61.2021 18.6532 61.5992 12.0387 61.9783V61.9783ZM17.3194 45.4236C16.5943 45.3961 15.871 45.5103 15.1907 45.7597C14.5105 46.009 13.8868 46.3887 13.3554 46.8768C12.8241 47.3649 12.3955 47.9519 12.0943 48.604C11.7931 49.2562 11.6252 49.9607 11.6002 50.6771C11.576 52.1374 12.1399 53.5475 13.1679 54.597C14.1959 55.6465 15.6038 56.2496 17.0818 56.2736C18.5599 56.2975 19.987 55.7403 21.0493 54.7247C22.1116 53.709 22.722 52.318 22.7462 50.8576C22.743 49.4299 22.1725 48.0604 21.1575 47.0441C20.1426 46.0278 18.7643 45.4459 17.3194 45.4236V45.4236Z" fill="#252525" /></svg>